<svg width="400" height="400" viewBox="0 0 400 400" fill="none" xmlns="http://www.w3.org/2000/svg">
<rect width="400" height="400" rx="107" fill="#007BFF"/>
<path d="M165.391 309.267V329H156.896C134.149 329 118.892 325.62 111.127 318.859C103.454 312.099 99.6167 298.624 99.6167 278.433V245.681C99.6167 231.886 97.1502 222.34 92.2171 217.041C87.2839 211.742 78.3312 209.093 65.3589 209.093H57V189.496H65.3589C78.4225 189.496 87.3753 186.893 92.2171 181.685C97.1502 176.386 99.6167 166.931 99.6167 153.318V120.43C99.6167 100.239 103.454 86.8098 111.127 80.1407C118.892 73.3802 134.149 70 156.896 70H165.391V89.5962H156.073C143.192 89.5962 134.788 91.6061 130.86 95.6258C126.931 99.6456 124.967 108.096 124.967 120.978V154.963C124.967 169.306 122.866 179.721 118.664 186.207C114.553 192.694 107.473 197.079 97.4242 199.363C107.564 201.83 114.69 206.306 118.801 212.793C122.912 219.279 124.967 229.648 124.967 243.9V277.885C124.967 290.767 126.931 299.217 130.86 303.237C134.788 307.257 143.192 309.267 156.073 309.267H165.391Z" fill="white"/>
<path d="M233.61 309.267H243.202C255.992 309.267 264.305 307.302 268.142 303.374C272.07 299.446 274.034 290.949 274.034 277.885V243.9C274.034 229.648 276.09 219.279 280.201 212.793C284.311 206.306 291.437 201.83 301.577 199.363C291.437 197.079 284.311 192.694 280.201 186.207C276.09 179.721 274.034 169.306 274.034 154.963V120.978C274.034 108.005 272.07 99.5543 268.142 95.6258C264.305 91.6061 255.992 89.5962 243.202 89.5962H233.61V70H242.243C264.99 70 280.155 73.3802 287.737 80.1407C295.411 86.8098 299.248 100.239 299.248 120.43V153.318C299.248 166.931 301.714 176.386 306.647 181.685C311.581 186.893 320.533 189.496 333.506 189.496H342.001V209.093H333.506C320.533 209.093 311.581 211.742 306.647 217.041C301.714 222.34 299.248 231.886 299.248 245.681V278.433C299.248 298.624 295.411 312.099 287.737 318.859C280.155 325.62 264.99 329 242.243 329H233.61V309.267Z" fill="white"/>
</svg>
