<svg width="519" height="72" viewBox="0 0 519 72" fill="none" xmlns="http://www.w3.org/2000/svg">
<path d="M326.756 66.384V71.8589H324.399C318.088 71.8589 313.855 70.9211 311.701 69.0454C309.572 67.1697 308.507 63.4311 308.507 57.8294V48.7424C308.507 44.915 307.823 42.2662 306.454 40.7961C305.085 39.326 302.601 38.5909 299.002 38.5909H296.683V33.154H299.002C302.627 33.154 305.111 32.4315 306.454 30.9868C307.823 29.5166 308.507 26.8932 308.507 23.1165V13.9916C308.507 8.38987 309.572 4.66384 311.701 2.81351C313.855 0.93783 318.088 0 324.399 0H326.756V5.43693H324.171C320.597 5.43693 318.265 5.99456 317.175 7.10983C316.085 8.22511 315.541 10.5697 315.541 14.1436V23.5728C315.541 27.5523 314.958 30.4418 313.792 32.2414C312.651 34.0411 310.687 35.2577 307.899 35.8914C310.712 36.5758 312.689 37.8178 313.83 39.6175C314.97 41.4171 315.541 44.294 315.541 48.2481V57.6772C315.541 61.2512 316.085 63.5958 317.175 64.7111C318.265 65.8263 320.597 66.384 324.171 66.384H326.756Z" fill="#007BFF"/>
<path d="M382.15 34.6747C382.15 38.7303 381.491 42.2789 380.173 45.3205C378.855 48.3622 377.03 50.9222 374.698 53.0007C372.366 55.0285 369.603 56.5746 366.41 57.6392C363.267 58.6531 359.845 59.16 356.145 59.16H341.317V10.2656H356.145C360.048 10.2656 363.596 10.8232 366.79 11.9384C369.984 13.0537 372.721 14.6506 375.002 16.7291C377.283 18.8075 379.032 21.3675 380.249 24.4092C381.516 27.4001 382.15 30.822 382.15 34.6747V34.6747ZM372.113 34.6747C372.113 23.5727 366.79 18.0217 356.145 18.0217H351.354V51.4039H356.145C366.79 51.4039 372.113 45.8275 372.113 34.6747Z" fill="#007BFF"/>
<path d="M390.742 59.16V10.2656H422.982V18.0217H400.399V30.1123H421.613V37.4883H400.399V51.4039H423.666V59.16H390.742Z" fill="#007BFF"/>
<path d="M459.024 59.16H447.086L429.065 10.2656H439.862L453.321 47.9059L466.932 10.2656H477.653L459.024 59.16Z" fill="#007BFF"/>
<path d="M488.146 66.384H490.808C494.356 66.384 496.662 65.839 497.727 64.7491C498.817 63.6591 499.362 61.3019 499.362 57.6772V48.2481C499.362 44.294 499.932 41.4171 501.073 39.6175C502.213 37.8178 504.19 36.5758 507.004 35.8914C504.19 35.2577 502.213 34.0411 501.073 32.2414C499.932 30.4418 499.362 27.5523 499.362 23.5728V14.1436C499.362 10.5444 498.817 8.19976 497.727 7.10983C496.662 5.99456 494.356 5.43693 490.808 5.43693H488.146V0H490.541C496.853 0 501.06 0.93783 503.164 2.81351C505.293 4.66384 506.357 8.38987 506.357 13.9916V23.1165C506.357 26.8932 507.042 29.5166 508.41 30.9868C509.779 32.4315 512.263 33.154 515.862 33.154H518.219V38.5909H515.862C512.263 38.5909 509.779 39.326 508.41 40.7961C507.042 42.2662 506.357 44.915 506.357 48.7424V57.8294C506.357 63.4311 505.293 67.1697 503.164 69.0454C501.06 70.9211 496.853 71.8589 490.541 71.8589H488.146V66.384Z" fill="#007BFF"/>
<path d="M0 60.3768V11.4823H10.037V52.6206H32.164V60.3768H0Z" fill="black"/>
<path d="M83.8696 35.8916C83.8696 39.5922 83.3627 42.9887 82.3489 46.0811C81.3351 49.1734 79.8397 51.8602 77.8627 54.1414C75.8857 56.372 73.4525 58.1209 70.563 59.3883C67.7243 60.6556 64.4547 61.2893 60.7542 61.2893C56.8509 61.2893 53.4292 60.6303 50.4891 59.3122C47.5996 57.9435 45.1918 56.1185 43.2655 53.8373C41.3392 51.556 39.8945 48.8692 38.9313 45.7769C37.9682 42.6846 37.4866 39.3895 37.4866 35.8916C37.4866 32.1909 37.9935 28.7944 39.0074 25.702C40.0719 22.6097 41.5926 19.9482 43.5696 17.7177C45.5466 15.4871 47.9798 13.7382 50.8693 12.4709C53.7587 11.2035 57.0537 10.5698 60.7542 10.5698C64.6068 10.5698 67.9778 11.2542 70.8672 12.6229C73.8073 13.941 76.2152 15.766 78.0908 18.0979C80.0171 20.3792 81.4618 23.0659 82.4249 26.1583C83.3881 29.1999 83.8696 32.4444 83.8696 35.8916V35.8916ZM73.6046 35.8916C73.6046 24.1812 69.3211 18.326 60.7542 18.326C52.1366 18.326 47.8277 24.1812 47.8277 35.8916C47.8277 47.6526 52.1366 53.5331 60.7542 53.5331C69.3211 53.5331 73.6046 47.6526 73.6046 35.8916Z" fill="black"/>
<path d="M136.336 60.3768V19.7708L124.018 60.3768H114.209L101.891 19.7708V60.3768H92.4619V11.4823H108.658L119.151 46.8415L129.644 11.2542H145.916V60.3768H136.336Z" fill="black"/>
<path d="M192.604 47.754C192.604 49.8324 192.071 51.6574 191.007 53.2289C189.942 54.8004 188.599 56.1185 186.977 57.1831C185.355 58.2477 183.581 59.0587 181.654 59.6164C179.728 60.1233 177.903 60.3768 176.18 60.3768H155.421V11.4823H175.495C177.421 11.4823 179.272 11.7358 181.046 12.2427C182.82 12.7497 184.366 13.5101 185.684 14.5239C187.053 15.4871 188.143 16.7291 188.954 18.25C189.765 19.7201 190.17 21.4437 190.17 23.4208C190.17 25.043 189.892 26.4624 189.334 27.6791C188.827 28.8451 188.143 29.8843 187.281 30.7967C186.419 31.7093 185.38 32.5204 184.163 33.2301C182.998 33.8891 181.781 34.4974 180.514 35.0551C182.288 35.6127 183.91 36.2211 185.38 36.8801C186.85 37.5391 188.117 38.3756 189.182 39.3894C190.247 40.3526 191.083 41.5186 191.691 42.8873C192.3 44.2561 192.604 45.8783 192.604 47.754V47.754ZM180.133 25.3978C180.133 24.3333 179.905 23.4208 179.449 22.6604C178.993 21.9 178.41 21.2663 177.7 20.7593C176.991 20.2524 176.18 19.8722 175.267 19.6187C174.405 19.3652 173.518 19.2385 172.606 19.2385H165.458V31.3291H171.921C172.935 31.3291 173.924 31.2023 174.887 30.9489C175.901 30.6954 176.788 30.3152 177.548 29.8082C178.309 29.3013 178.917 28.693 179.373 27.9832C179.88 27.2228 180.133 26.361 180.133 25.3978V25.3978ZM182.187 45.7769C182.187 44.5095 181.882 43.445 181.274 42.5832C180.716 41.6707 179.981 40.961 179.069 40.454C178.157 39.8964 177.117 39.5162 175.951 39.3134C174.836 39.0599 173.721 38.9332 172.606 38.9332H165.458V52.6206H172.606C173.924 52.6206 175.166 52.4939 176.332 52.2404C177.498 51.9869 178.511 51.6067 179.373 51.0998C180.235 50.5421 180.919 49.8324 181.426 48.9706C181.933 48.1088 182.187 47.0442 182.187 45.7769V45.7769Z" fill="black"/>
<path d="M246.286 35.8916C246.286 39.5922 245.779 42.9887 244.766 46.0811C243.752 49.1734 242.256 51.8602 240.279 54.1414C238.302 56.372 235.869 58.1209 232.98 59.3883C230.141 60.6556 226.871 61.2893 223.171 61.2893C219.268 61.2893 215.846 60.6303 212.906 59.3122C210.016 57.9435 207.608 56.1185 205.682 53.8373C203.756 51.556 202.311 48.8692 201.348 45.7769C200.385 42.6846 199.903 39.3895 199.903 35.8916C199.903 32.1909 200.41 28.7944 201.424 25.702C202.489 22.6097 204.009 19.9482 205.986 17.7177C207.963 15.4871 210.397 13.7382 213.286 12.4709C216.175 11.2035 219.47 10.5698 223.171 10.5698C227.023 10.5698 230.394 11.2542 233.284 12.6229C236.224 13.941 238.632 15.766 240.508 18.0979C242.434 20.3792 243.879 23.0659 244.842 26.1583C245.805 29.1999 246.286 32.4444 246.286 35.8916V35.8916ZM236.021 35.8916C236.021 24.1812 231.738 18.326 223.171 18.326C214.553 18.326 210.244 24.1812 210.244 35.8916C210.244 47.6526 214.553 53.5331 223.171 53.5331C231.738 53.5331 236.021 47.6526 236.021 35.8916Z" fill="black"/>
<path d="M282.556 60.3768L264.916 35.8916V60.3768H254.879V11.4823H264.916V32.4697L281.188 11.4823H292.745L275.485 33.3822L294.798 60.3768H282.556Z" fill="black"/>
</svg>
